<?xml version="1.0" encoding="UTF-8" standalone="no"?>
<svg
   style="enable-background:new 0 0 128 128"
   viewBox="0 0 128 128"
   xml:space="preserve"
   version="1.1"
   id="svg12"
   sodipodi:docname="1F6E1.svg"
   inkscape:version="1.2.2 (732a01da63, 2022-12-09)"
   xmlns:inkscape="http://www.inkscape.org/namespaces/inkscape"
   xmlns:sodipodi="http://sodipodi.sourceforge.net/DTD/sodipodi-0.dtd"
   xmlns="http://www.w3.org/2000/svg"
   xmlns:svg="http://www.w3.org/2000/svg"><defs
     id="defs16" /><sodipodi:namedview
     id="namedview14"
     pagecolor="#505050"
     bordercolor="#eeeeee"
     borderopacity="1"
     inkscape:showpageshadow="0"
     inkscape:pageopacity="0"
     inkscape:pagecheckerboard="0"
     inkscape:deskcolor="#505050"
     showgrid="false"
     inkscape:zoom="4.5796213"
     inkscape:cx="24.67453"
     inkscape:cy="57.646688"
     inkscape:window-width="1920"
     inkscape:window-height="1009"
     inkscape:window-x="1912"
     inkscape:window-y="-8"
     inkscape:window-maximized="1"
     inkscape:current-layer="svg12" /><path
     d="m 16.7,19.7 c -1,0 -1.7,0.8 -1.7,1.8 v 0.1 c 0,24.7 4,59.3 24,83.5 12.1,14.7 23.9,18.5 24.5,18.7 l 0.6,0.2 0.5,-0.2 c 0.5,-0.2 12.5,-4 24.5,-18.7 19.9,-24.2 24,-58.8 24,-83.5 v -0.1 c 0,-1 -0.8,-1.8 -1.7,-1.8 -0.3,0 -29.1,-1 -46,-15.3 C 64.7,3.8 63.7,3.8 63,4.4 45.9,18.6 17,19.6 16.7,19.7 Z"
     style="display:inline;fill:#4991c8;fill-opacity:1"
     id="path2" /><g
     style="opacity:.2"
     id="g6"><path
       d="m 64,7.3 c 15.7,12.7 40.3,15 46,15.3 -0.1,24.2 -4.3,57.5 -23.3,80.6 -10.4,12.7 -20.8,16.9 -22.8,17.6 -2,-0.7 -12.3,-4.9 -22.7,-17.6 C 22.3,80.1 18.1,46.8 18,22.6 23.6,22.2 48.3,19.9 64,7.3 M 64,3.9 C 63.6,3.9 63.1,4 62.8,4.4 45.9,18.6 17,19.6 16.7,19.7 c -1,0 -1.7,0.8 -1.7,1.8 v 0.1 c 0,24.7 4,59.3 24,83.5 12.1,14.7 23.9,18.5 24.5,18.7 l 0.6,0.2 0.5,-0.2 c 0.5,-0.2 12.5,-4 24.5,-18.7 19.9,-24.2 24,-58.8 24,-83.5 v -0.1 c 0,-1 -0.8,-1.8 -1.7,-1.8 -0.3,0 -29.1,-1 -46,-15.3 C 64.9,4.1 64.5,3.9 64,3.9 Z"
       style="display:inline;fill:#226699;fill-opacity:1"
       id="path4" /></g><path
     d="m 27,29 c -0.8,0 -1,1 -1,1.7 v 0.1 c 0,19.3 3,46.4 18.6,65.3 9.4,11.5 18.6,14.5 19,14.6 l 0.4,0.1 0.4,-0.1 c 0.4,-0.1 9.6,-3.1 19,-14.6 C 99,77.2 102,50.2 102,30.8 v -0.1 c 0,-0.8 -0.4,-1.4 -1.2,-1.4 h 0.1 c -0.2,0 -22.7,-0.8 -35.9,-11.9 -0.6,-0.5 -1.3,-0.5 -1.9,0 V 17.2 C 49.8,28.3 27.3,29 27,29 Z"
     style="display:inline;fill:#8dc8f5;fill-opacity:1"
     id="path8" /><path
     d="m 100.8,29.3 c -0.2,0 -22.7,-0.8 -35.9,-12 C 64.7,17.1 64.3,17 64,17 v 93.8 l 0.4,-0.1 c 0.4,-0.1 9.6,-3.1 19,-14.6 C 99,77.2 102,50.2 102,30.8 v -0.1 c 0,-0.7 -0.4,-1.4 -1.2,-1.4 z"
     style="display:inline;fill:#226699;fill-opacity:1"
     id="path10" /><g
     id="g7813"
     transform="matrix(1.7977483,0,0,2.101693,-51.194679,-79.369218)"><path
       fill="#66757f"
       d="m 50.000201,69.000201 a 1.0003462,1.0003462 0 1 1 -1.847,-0.769 l 4.617,-12.538 a 1,1 0 1 1 1.846,0.769 z"
       id="path380" /><path
       fill="#66757f"
       d="m 60.000201,68.231201 a 1.0003462,1.0003462 0 0 1 -1.847,0.769 l -4.615,-12.538 a 1.0003462,1.0003462 0 0 1 1.847,-0.769 z m 10.001,0.769 a 1.001,1.001 0 0 1 -1.847,-0.769 l 4.616,-12.539 a 1.000077,1.000077 0 0 1 1.846,0.77 z"
       id="path382" /><path
       fill="#66757f"
       d="m 80.000201,68.231201 a 1.0003462,1.0003462 0 1 1 -1.847,0.769 l -4.615,-12.538 a 1,1 0 1 1 1.846,-0.769 z"
       id="path384" /><path
       fill="#ffac33"
       d="m 60.934201,68.077201 h -13.714 c -0.631,0 -1.143,0.511 -1.143,1.143 0,2.524 3.582,4.571 8,4.571 4.418,0 8,-2.047 8,-4.571 0,-0.632 -0.512,-1.143 -1.143,-1.143 z m 9.143,12 h -12 a 1,1 0 0 1 -1,-1 c 0,-2.209 3.134,-4 7,-4 3.866,0 7,1.791 7,4 a 1,1 0 0 1 -1,1 z m 10.857,-12 h -13.714 c -0.632,0 -1.143,0.511 -1.143,1.143 0,2.524 3.581,4.571 8,4.571 4.419,0 8,-2.047 8,-4.571 0,-0.632 -0.511,-1.143 -1.143,-1.143 z"
       id="path386" /><path
       fill="#ffac33"
       d="m 65.077201,49.077201 a 1,1 0 1 0 -2,0 v 27 a 1,1 0 1 0 2,0 z"
       id="path388" /><circle
       cx="64.077202"
       cy="50.077202"
       r="2"
       fill="#ffac33"
       id="circle390" /><circle
       cx="54.077202"
       cy="56.077202"
       r="2"
       fill="#ffac33"
       id="circle392" /><circle
       cx="74.077202"
       cy="56.077202"
       r="2"
       fill="#ffac33"
       id="circle394" /><path
       fill="#ffac33"
       d="m 74.077201,56.077201 c 0,1.104 0,0 -10,0 -10,0 -10,1.104 -10,0 0,-1.104 3,-4 10,-4 7,0 10,2.896 10,4 z"
       id="path396" /></g></svg>
